<svg xmlns="http://www.w3.org/2000/svg" viewBox="0 0 900 380" font-family="'Segoe UI', system-ui, -apple-system, sans-serif">
  <defs>
    <linearGradient id="bg3" x1="0" y1="0" x2="0" y2="1">
      <stop offset="0%" stop-color="#0f0f23"/>
      <stop offset="100%" stop-color="#1a1a3e"/>
    </linearGradient>
  </defs>

  <rect width="900" height="380" fill="url(#bg3)" rx="16"/>

  <text x="450" y="40" text-anchor="middle" fill="#e2e8f0" font-size="22" font-weight="700">Single Agent vs Agent Teams</text>

  <!-- Column headers -->
  <text x="450" y="80" text-anchor="middle" fill="#94a3b8" font-size="13" font-weight="500">|</text>
  <text x="310" y="80" text-anchor="middle" fill="#94a3b8" font-size="14" font-weight="600">Single Agent</text>
  <text x="660" y="80" text-anchor="middle" fill="#6ee7b7" font-size="14" font-weight="600">Agent Teams</text>

  <!-- Divider line -->
  <line x1="450" y1="65" x2="450" y2="360" stroke="#374151" stroke-width="1" stroke-dasharray="4,4"/>

  <!-- Row 1: Defect Detection -->
  <rect x="40" y="100" width="400" height="44" rx="8" fill="#ef444415" stroke="#ef444440" stroke-width="1"/>
  <text x="60" y="118" fill="#fca5a5" font-size="11" font-weight="600">DEFECT DETECTION</text>
  <text x="60" y="135" fill="#94a3b8" font-size="12">Self-review bias — misses own mistakes</text>

  <rect x="460" y="100" width="400" height="44" rx="8" fill="#10b98115" stroke="#10b98140" stroke-width="1"/>
  <text x="480" y="118" fill="#6ee7b7" font-size="11" font-weight="600">DEFECT DETECTION</text>
  <text x="480" y="135" fill="#cbd5e1" font-size="12">Independent reviewers catch what the author can't</text>

  <!-- Row 2: Security -->
  <rect x="40" y="155" width="400" height="44" rx="8" fill="#ef444415" stroke="#ef444440" stroke-width="1"/>
  <text x="60" y="173" fill="#fca5a5" font-size="11" font-weight="600">SECURITY</text>
  <text x="60" y="190" fill="#94a3b8" font-size="12">Security is an afterthought</text>

  <rect x="460" y="155" width="400" height="44" rx="8" fill="#10b98115" stroke="#10b98140" stroke-width="1"/>
  <text x="480" y="173" fill="#6ee7b7" font-size="11" font-weight="600">SECURITY</text>
  <text x="480" y="190" fill="#cbd5e1" font-size="12">Dedicated Security Sr. audits every change</text>

  <!-- Row 3: Spec Compliance -->
  <rect x="40" y="210" width="400" height="44" rx="8" fill="#ef444415" stroke="#ef444440" stroke-width="1"/>
  <text x="60" y="228" fill="#fca5a5" font-size="11" font-weight="600">SPEC COMPLIANCE</text>
  <text x="60" y="245" fill="#94a3b8" font-size="12">No one verifies requirements are met</text>

  <rect x="460" y="210" width="400" height="44" rx="8" fill="#10b98115" stroke="#10b98140" stroke-width="1"/>
  <text x="480" y="228" fill="#6ee7b7" font-size="11" font-weight="600">SPEC COMPLIANCE</text>
  <text x="480" y="245" fill="#cbd5e1" font-size="12">CTO Lead validates match rate before shipping</text>

  <!-- Row 4: API Integration -->
  <rect x="40" y="265" width="400" height="44" rx="8" fill="#ef444415" stroke="#ef444440" stroke-width="1"/>
  <text x="60" y="283" fill="#fca5a5" font-size="11" font-weight="600">API INTEGRATION</text>
  <text x="60" y="300" fill="#94a3b8" font-size="12">Frontend guesses backend shape</text>

  <rect x="460" y="265" width="400" height="44" rx="8" fill="#10b98115" stroke="#10b98140" stroke-width="1"/>
  <text x="480" y="283" fill="#6ee7b7" font-size="11" font-weight="600">API INTEGRATION</text>
  <text x="480" y="300" fill="#cbd5e1" font-size="12">Real-time contract negotiation via SendMessage</text>

  <!-- Row 5: Rework -->
  <rect x="40" y="320" width="400" height="44" rx="8" fill="#ef444415" stroke="#ef444440" stroke-width="1"/>
  <text x="60" y="338" fill="#fca5a5" font-size="11" font-weight="600">REWORK</text>
  <text x="60" y="355" fill="#94a3b8" font-size="12">Bugs found late → expensive fixes</text>

  <rect x="460" y="320" width="400" height="44" rx="8" fill="#10b98115" stroke="#10b98140" stroke-width="1"/>
  <text x="480" y="338" fill="#6ee7b7" font-size="11" font-weight="600">REWORK</text>
  <text x="480" y="355" fill="#cbd5e1" font-size="12">Parallel verification catches issues early</text>
</svg>
